<svg xmlns="http://www.w3.org/2000/svg" width="800" height="450" viewBox="0 0 800 450" role="img" aria-labelledby="title desc">
  <title id="title">严谨咨询报告</title><desc id="desc">白底、结论式标题、高信息密度、严谨图表</desc>
  <rect width="800" height="450" fill="#fff"/><rect width="510" height="8" fill="#123c69"/><rect x="510" width="180" height="8" fill="#2a7f82"/><rect x="690" width="110" height="8" fill="#d79b2d"/>
  <text x="48" y="52" font-family="Arial,PingFang SC,sans-serif" font-size="13" font-weight="700" fill="#123c69">EXECUTIVE SUMMARY</text><text x="48" y="103" font-family="Georgia,Songti SC,serif" font-size="37" font-weight="700" fill="#17202a">严谨咨询报告</text><rect x="48" y="126" width="612" height="8" fill="#17202a"/><rect x="48" y="148" width="470" height="5" fill="#5d6874" opacity=".55"/>
  <rect x="48" y="196" width="214" height="154" fill="#f3f5f7" stroke="#c7ced6"/><rect x="68" y="220" width="64" height="6" fill="#123c69"/><rect x="68" y="249" width="138" height="62" fill="#fff" stroke="#c7ced6"/><path d="M82 296l28-24 30 10 50-42" fill="none" stroke="#2a7f82" stroke-width="5"/>
  <rect x="286" y="196" width="466" height="154" fill="#fff" stroke="#c7ced6"/><rect x="286" y="196" width="466" height="28" fill="#123c69"/><path d="M286 263H752M286 302H752M398 224V350M480 224V350" stroke="#c7ced6"/><rect x="306" y="242" width="60" height="7" fill="#17202a"/><rect x="422" y="242" width="26" height="7" fill="#2a7f82"/><rect x="505" y="242" width="180" height="7" fill="#5d6874" opacity=".55"/><rect x="505" y="282" width="140" height="7" fill="#5d6874" opacity=".55"/><rect x="505" y="321" width="200" height="7" fill="#d79b2d"/>
  <line x1="48" y1="397" x2="752" y2="397" stroke="#c7ced6"/><rect x="48" y="412" width="180" height="5" fill="#5d6874" opacity=".45"/>
</svg>
